<svg xmlns="http://www.w3.org/2000/svg" fill="none" viewBox="0 0 36 36" height="36" width="36">
<g clip-path="url(#clip0)">
<path fill="#FFAC33" d="M34.724 29.656C33.485 29.646 33.483 30.861 33.483 30.861H18.5C13.254 30.861 9 26.607 9 21.361C9 16.115 13.254 11.861 18.5 11.861C23.746 11.861 28 16.115 28 21.361C28 24.423 26.4 27.258 24.148 28.994H29.582C31.022 26.849 32 24.139 32 21.361C32 13.905 25.955 7.861 18.5 7.861C11.044 7.861 5 13.905 5 21.361C5 28.816 11.044 34.861 18.5 34.861H33.482C33.482 34.861 33.479 35.988 34.723 36C35.961 36.012 35.951 34.755 35.951 34.755L35.965 30.934C35.965 30.934 35.966 29.667 34.724 29.656ZM5 14.26C6.014 12.429 7.378 10.822 9 9.521V9C9 4 14 2 14 1C14 0 13 0 13 0H1C0 0 0 1 0 1C0 2 5 4.333 5 8.69V14.26Z"/>
<path fill="#BE1931" d="M13.091 29.166C10.621 27.45 9 24.597 9 21.361C9 21.052 9.018 20.748 9.046 20.446L5.069 19.985C5.023 20.437 5 20.896 5 21.361C5 25.934 7.28 29.969 10.76 32.412L13.091 29.166Z"/>
<path fill="#BE1931" d="M6.00011 25.924C6.00011 25.924 0.812106 25.112 1.00011 26.924C1.18811 28.736 6.00011 25.924 6.00011 25.924ZM6.00011 26.236C6.00011 26.236 1.87511 28.924 3.06211 29.986C4.24911 31.048 6.00011 26.236 6.00011 26.236Z"/>
</g>
<defs>
<clipPath id="clip0">
<rect fill="white" height="36" width="36"/>
</clipPath>
</defs>
</svg>
