<svg xmlns="http://www.w3.org/2000/svg" fill="none" viewBox="0 0 36 36" height="36" width="36">
<g clip-path="url(#clip0)">
<path fill="#DD2E44" d="M24.3741 7.48799C24.4861 7.59999 24.5711 7.73499 24.6421 7.88299L24.6501 7.87499L35.8661 33.141L35.8551 33.152C36.0631 33.555 35.7151 34.375 35.0021 35.089C34.2891 35.802 33.4691 36.15 33.0661 35.942L33.0561 35.952L7.79012 24.735L7.79812 24.726C7.65112 24.656 7.51612 24.571 7.40312 24.457C5.84112 22.895 8.37412 17.83 13.0591 13.144C17.7461 8.45799 22.8111 5.92599 24.3741 7.48799Z"/>
<path fill="#EA596E" d="M23.0001 12L35.5841 32.506L35.8661 33.141L35.8551 33.152C36.0631 33.555 35.7151 34.375 35.0021 35.089C34.7701 35.321 34.5291 35.497 34.2931 35.646L19.0001 17L23.0001 12Z"/>
<path fill="#A0041E" d="M12.9881 13.066C8.31808 17.738 5.72508 22.718 7.19908 24.19C8.67208 25.664 13.6521 23.072 18.3251 18.402C22.9961 13.73 25.5881 8.74799 24.1151 7.27499C22.6411 5.80199 17.6611 8.39399 12.9881 13.066Z"/>
<path fill="#AA8DD8" d="M17.4099 13.609C17.6089 13.77 17.8689 13.854 18.1439 13.824C19.0119 13.73 19.7419 13.428 20.2529 12.951C20.7939 12.446 21.0609 11.768 20.9879 11.089C20.8599 9.89699 19.6639 8.80299 17.6249 9.02299C16.8319 9.10799 16.4779 8.85299 16.4659 8.73099C16.4519 8.60999 16.7429 8.28499 17.5359 8.19899C18.4039 8.10499 19.1339 7.80299 19.6459 7.32599C20.1869 6.82099 20.4549 6.14299 20.3809 5.46399C20.2509 4.27199 19.0559 3.17799 17.0189 3.39899C16.4409 3.46099 16.1359 3.34199 16.0069 3.26499C15.9039 3.20199 15.8629 3.14199 15.8589 3.10699C15.8469 2.98599 16.1339 2.66099 16.9289 2.57499C17.4779 2.51499 17.8759 2.02299 17.8149 1.47299C17.7559 0.923991 17.2649 0.526991 16.7139 0.586991C14.6769 0.805991 13.7409 2.12899 13.8699 3.32199C13.9999 4.51599 15.1949 5.60799 17.2339 5.38899C17.8119 5.32599 18.1139 5.44599 18.2439 5.52299C18.3469 5.58499 18.3889 5.64599 18.3929 5.67999C18.4059 5.80199 18.1169 6.12599 17.3219 6.21199C15.2849 6.43199 14.3489 7.75399 14.4779 8.94699C14.6069 10.139 15.8019 11.233 17.8399 11.012C18.4179 10.95 18.7219 11.07 18.8519 11.146C18.9559 11.21 18.9959 11.27 18.9999 11.304C19.0129 11.425 18.7239 11.75 17.9299 11.836C17.3819 11.896 16.9829 12.389 17.0439 12.938C17.0719 13.212 17.2109 13.449 17.4099 13.609Z"/>
<path fill="#77B255" d="M5.33909 22.857C3.36609 22.3 2.00509 23.18 1.68109 24.335C1.35709 25.489 2.05909 26.95 4.03109 27.505C4.80109 27.721 5.03209 28.089 5.00109 28.206C4.96709 28.324 4.57609 28.518 3.80809 28.301C1.83609 27.746 0.475091 28.626 0.151092 29.78C-0.174909 30.935 0.529089 32.394 2.50209 32.95C3.27109 33.166 3.50309 33.535 3.46909 33.652C3.43609 33.769 3.04609 33.963 2.27709 33.747C1.74709 33.598 1.19309 33.907 1.04409 34.438C0.89609 34.97 1.20509 35.522 1.73709 35.672C3.70809 36.227 5.07009 35.349 5.39609 34.193C5.72009 33.039 5.01709 31.58 3.04309 31.024C2.27309 30.807 2.04209 30.44 2.07609 30.322C2.10809 30.205 2.49809 30.01 3.26609 30.226C5.24009 30.782 6.60009 29.904 6.92509 28.747C7.25009 27.593 6.54709 26.134 4.57409 25.577C3.80609 25.362 3.57509 24.992 3.60709 24.876C3.64109 24.758 4.03009 24.564 4.79909 24.78C5.33109 24.93 5.88209 24.62 6.03209 24.089C6.18109 23.559 5.87109 23.007 5.33909 22.857Z"/>
<path fill="#AA8DD8" d="M12.9989 20.16C13.2929 20.16 13.5829 20.031 13.7809 19.785C14.1259 19.353 14.0549 18.724 13.6249 18.379C13.4069 18.204 8.20692 14.12 0.857922 15.171C0.310922 15.249 -0.0690813 15.755 0.00891876 16.302C0.0869188 16.848 0.588919 17.232 1.14092 17.15C7.63392 16.228 12.3279 19.904 12.3739 19.941C12.5599 20.089 12.7799 20.16 12.9989 20.16Z"/>
<path fill="#77B255" d="M30.246 16C30.341 16 30.438 15.986 30.534 15.958C31.063 15.799 31.363 15.242 31.204 14.713C30.071 10.94 29.044 4.91903 30.306 3.34903C30.447 3.17103 30.66 2.99603 31.148 3.03303C32.086 3.10503 31.997 5.08403 31.996 5.10403C31.954 5.65503 32.368 6.13503 32.918 6.17603C33.477 6.21003 33.949 5.80403 33.99 5.25303C34.093 3.87403 33.664 1.21803 31.298 1.03903C30.242 0.959029 29.365 1.32603 28.746 2.09603C26.375 5.04703 28.782 13.602 29.288 15.288C29.418 15.721 29.816 16 30.246 16Z"/>
<path fill="#5C913B" d="M10.5 11C9.67157 11 9 10.3284 9 9.5C9 8.67157 9.67157 8 10.5 8C11.3284 8 12 8.67157 12 9.5C12 10.3284 11.3284 11 10.5 11Z"/>
<path fill="#9266CC" d="M34 20C32.8954 20 32 19.1046 32 18C32 16.8954 32.8954 16 34 16C35.1046 16 36 16.8954 36 18C36 19.1046 35.1046 20 34 20Z"/>
<path fill="#5C913B" d="M3.5 21C2.67157 21 2 20.3284 2 19.5C2 18.6716 2.67157 18 3.5 18C4.32843 18 5 18.6716 5 19.5C5 20.3284 4.32843 21 3.5 21Z"/>
<path fill="#5C913B" d="M12.5 33C11.6716 33 11 32.3284 11 31.5C11 30.6716 11.6716 30 12.5 30C13.3284 30 14 30.6716 14 31.5C14 32.3284 13.3284 33 12.5 33Z"/>
<path fill="#FFCC4D" d="M8 6C6.89543 6 6 5.10457 6 4C6 2.89543 6.89543 2 8 2C9.10457 2 10 2.89543 10 4C10 5.10457 9.10457 6 8 6Z"/>
<path fill="#FFCC4D" d="M3.5 10C2.67157 10 2 9.32843 2 8.5C2 7.67157 2.67157 7 3.5 7C4.32843 7 5 7.67157 5 8.5C5 9.32843 4.32843 10 3.5 10Z"/>
<path fill="#FFCC4D" d="M6.5 14C5.67157 14 5 13.3284 5 12.5C5 11.6716 5.67157 11 6.5 11C7.32843 11 8 11.6716 8 12.5C8 13.3284 7.32843 14 6.5 14Z"/>
<path fill="#FFCC4D" d="M28.5 25C27.6716 25 27 24.3284 27 23.5C27 22.6716 27.6716 22 28.5 22C29.3284 22 30 22.6716 30 23.5C30 24.3284 29.3284 25 28.5 25Z"/>
</g>
<defs>
<clipPath id="clip0">
<rect transform="matrix(-1 0 0 1 36 0)" fill="white" height="36" width="36"/>
</clipPath>
</defs>
</svg>
