<svg fill="none" xmlns="http://www.w3.org/2000/svg" viewBox="0 0 1440 1120">
  <g clip-path="url(#Qx0_wcBAIa)">
    <path fill="url(#Qx0_wcBAIb)" d="M0 220h1440v900H0z"/>
    <path stroke="#fff" stroke-opacity=".1" stroke-width="32" d="M-986.314 1153.69L3.636 163.737M-890.31 1153.69L99.639 163.737m-893.946 989.953l989.95-989.953m-893.946 989.953l989.949-989.953M-602.3 1153.69l989.949-989.953m-893.946 989.953l989.95-989.953m-893.946 989.953l989.949-989.953M-314.29 1153.69l989.95-989.953m-893.946 989.953l989.949-989.953m-893.946 989.953l989.95-989.953M-26.279 1153.69L963.67 163.737M69.724 1153.69l989.946-989.953M165.727 1153.69l989.953-989.953M261.731 1153.69l989.949-989.953M357.734 1153.69l989.946-989.953M453.738 1153.69l989.952-989.953M549.741 1153.69l989.949-989.953M645.744 1153.69l989.946-989.953M741.748 1153.69L1731.7 163.737M837.751 1153.69L1827.7 163.737M933.755 1153.69L1923.7 163.737m-893.94 989.953l989.95-989.953m-893.95 989.953l989.95-989.953m-893.95 989.953l989.95-989.953m-893.94 989.953l989.95-989.953m-893.95 989.953l989.95-989.953"/>
    <path d="M375.102 66.053s-16.012-35.678-46.534-19.118c0 0-75.661-89.45-159.338-18.42C79.008 7.929 53.613 88.295 53.613 144.76 10.526 124.901 0 192.372 0 192.372V1120h1229.65c-41.65-91.03-84.86-126.597-156.53-123.582 101.61-111.347-39.94-173.26-39.94-173.26 9.42-41.778-26.97-45.754-26.97-45.754-8.064-63.311-68.686-27.385-68.686-27.385-5.568-43.766-45.537-29.558-45.537-29.558.979-41.742-35.066-37.435-35.066-37.435 15.067-51.275-32.336-62.539-32.336-62.539-34.878-78.624-102.486-30.625-102.486-30.625-6.783-41.741-44.381-35.079-44.381-35.079 80.021-180.465-68.62-243.712-68.62-243.712 16.83-48.649-24.686-161.081-95.313-135.657-2.185-56.233-75.187-146.695-138.683-109.361z" fill="#FFF2FB"/>
    <path d="M0 342s81.502 19.485 88.608 115.224c0 0 96.265-19.148 103.232 90.403 0 0 85.01 25.632 35.01 99.116 0 0 55.662 23.47 7.605 71.897 0 0 29.901-2.904 27.675 41.436 0 0 62.548-61.867 112.733 3.648 0 0 99.719-57.612 111.224 77.097 0 0 70.85-9.422 66.476 76.49 0 0 62.16-10.773 70.894 43.766 0 0 31.206-49.709 71.042-10.468 0 0 6.725-103.041 137.179-90.343 130.453 12.698 126.517 114.623 126.517 114.623s53.875 4.964 40.695 66.361c0 0 87.59-5.24 102.11 78.75H0V342z" fill="#fff"/>
    <path fill-rule="evenodd" clip-rule="evenodd" d="M1456.05 580.488s-15.35-21.699-37.99-13.323c0 0-19.61-32.38-59.69-24.405 0 0-54.54-51.042-111.36 6.945 0 0-24.89-4.935-35.8 20.556 0 0-20.7-13.782-36.24 8.15 0 0-39.85-27.868-65.34 12.422 0 0-23.61-11.138-36.72 11.131 0 0-12.98-8.855-22.91 8.085l406.52 4" fill="#fff"/>
  </g>
  <defs>
    <linearGradient id="Qx0_wcBAIb" x1="720" y1="220" x2="720" y2="1120" gradientUnits="userSpaceOnUse">
      <stop stop-color="#FFE6F7"/>
      <stop offset="1" stop-color="#FFF2FB"/>
    </linearGradient>
    <clipPath id="Qx0_wcBAIa">
      <path fill="#fff" d="M0 0h1440v1120H0z"/>
    </clipPath>
  </defs>
</svg>
