<svg fill="none" xmlns="http://www.w3.org/2000/svg" viewBox="0 0 1440 900">
  <g clip-path="url(#TChdDwHUXa)">
    <path fill="url(#TChdDwHUXb)" d="M0 0h1440v900H0z"/>
    <circle cx="720" cy="636" r="948" stroke="#fff" stroke-opacity=".1" stroke-width="32"/>
    <circle cx="720" cy="636" r="876" stroke="#fff" stroke-opacity=".1" stroke-width="32"/>
    <circle cx="720" cy="636" r="804" stroke="#fff" stroke-opacity=".1" stroke-width="32"/>
    <circle cx="720" cy="636" r="732" stroke="#fff" stroke-opacity=".1" stroke-width="32"/>
    <circle cx="720" cy="636" r="660" stroke="#fff" stroke-opacity=".1" stroke-width="32"/>
    <circle cx="720" cy="636" r="588" stroke="#fff" stroke-opacity=".1" stroke-width="32"/>
    <circle cx="720" cy="636" r="516" stroke="#fff" stroke-opacity=".1" stroke-width="32"/>
    <circle cx="720" cy="636" r="444" stroke="#fff" stroke-opacity=".1" stroke-width="32"/>
    <circle cx="720" cy="636" r="372" stroke="#fff" stroke-opacity=".1" stroke-width="32"/>
    <circle cx="720" cy="636" r="300" stroke="#fff" stroke-opacity=".1" stroke-width="32"/>
    <circle cx="720" cy="636" r="228" stroke="#fff" stroke-opacity=".1" stroke-width="32"/>
    <circle cx="720" cy="636" r="156" stroke="#fff" stroke-opacity=".1" stroke-width="32"/>
    <circle cx="720" cy="636" r="84" stroke="#fff" stroke-opacity=".1" stroke-width="32"/>
    <path fill-rule="evenodd" clip-rule="evenodd" d="M1012 495.878L1255.57 498s-6.36-6.469-21.17-6.993c-14.8-.523-20.56-38.787-64.04-13.854 0 0-13.92-10.659-25.63 3.562 0 0-8.92-31.612-38.27-30.695-29.35.916-38.36 28.887-38.36 28.887s-16.5-12.623-32.72 8.853c0 0-15.21-8.617-23.38 8.118z" fill="#fff"/>
    <path d="M0 458s34.176 9.964 50.362 53.672c0 0 60.232 2.769 97.37 58.703 0 0 13.898-19.71 34.194-6.446 0 0 21.5-27.966 44.704-11.186 0 0 54.629-43.709 81.003 23.811 0 0 21.082-10.467 26.614 13.371 0 0 40.221-57.713 102.718 5.998 0 0 24.619-18.937 38.267 8.923 0 0 26.592-12.546 34.069 15.581 0 0 46.904-58.277 73.952 16.86 0 0 31.355-10.681 56.618 26.955 0 0 50.831-44.96 82.777 34.333 0 0 32.237-16.088 46.042 28.712 0 0 31.003-52.284 97.854-12.678 0 0 14.825-38.541 47.222-15.422 0 0-1.095-30.896 26.424-23.039 0 0 12.764-40.299 44.481-6.259 0 0 37.069-67.339 99.829-40.97 0 0 31.41-36.437 60.65 5.727 0 0 16.12-69.438 80.95-34.786 0 0 44.88-75.564 113.89-10.867 0 0 26.63-29.618 72.15 3.17 0 0-12.92-37.933 27.86-46.163v354H0V458z" fill="#fff"/>
    <path fill-rule="evenodd" clip-rule="evenodd" d="M92 363.765L296 369s-10.26-19.292-32.456-9.472c0 0-5.867-26.358-40.077-13.644 0 0-22.096-46.548-51.437-8.786 0 0-33.031-19.123-45.435 16.675 0 0-23.06-11.231-34.595 9.992zm996-96.565l256-1.438s-5.37-9.336-26.31-5.724c0 0-7.61-33.89-43.04-15.794 0 0-12.91-44.066-55.37-38.471-42.46 5.627-52.02 39.527-52.02 39.527s-25.39-13.365-42.59 12.852c0 0-32.16-.927-36.67 9.048z" fill="#fff"/>
  </g>
  <defs>
    <linearGradient id="TChdDwHUXb" x1="720" y1="0" x2="720" y2="900" gradientUnits="userSpaceOnUse">
      <stop stop-color="#E0F7FF"/>
      <stop offset="1" stop-color="#F5FDFF"/>
      <stop offset="1" stop-color="#F5FDFF"/>
    </linearGradient>
    <clipPath id="TChdDwHUXa">
      <path fill="#fff" d="M0 0h1440v900H0z"/>
    </clipPath>
  </defs>
</svg>
