<svg fill="none" xmlns="http://www.w3.org/2000/svg" viewBox="0 0 1440 1152">
  <g clip-path="url(#2VEInSknOa)">
    <path fill="url(#2VEInSknOb)" d="M0 252h1440v900H0z"/>
    <path stroke="#fff" stroke-opacity=".1" stroke-width="32" d="M2426.354 1185.686l-989.95-989.95m893.94 989.95l-989.95-989.95m893.95 989.95l-989.95-989.95m893.94 989.95l-989.95-989.95m893.95 989.95l-989.95-989.95m893.95 989.95l-989.95-989.95m893.94 989.95l-989.95-989.95m893.95 989.95l-989.95-989.95m893.95 989.95l-989.95-989.95m893.94 989.95l-989.95-989.95m893.95 989.95l-989.95-989.95m893.95 989.95l-989.95-989.95m893.94 989.95l-989.95-989.95m893.95 989.95l-989.95-989.95m893.95 989.95l-989.95-989.95m893.944 989.95l-989.95-989.95m893.946 989.95l-989.95-989.95m893.946 989.95l-989.95-989.95m893.948 989.95l-989.95-989.95m893.946 989.95l-989.95-989.95m893.946 989.95l-989.95-989.95m893.947 989.95l-989.95-989.95m893.947 989.95l-989.95-989.95m893.946 989.95l-989.95-989.95m893.947 989.95l-989.95-989.95m893.946 989.95l-989.95-989.95"/>
    <path d="M0 396s121.928 6.006 106.499 119.938c0 0 90.966-59.515 97.87 66.225 0 0 83.255 6.067 40.817 87.05 0 0 59.938-12.33 27.079 44.484 0 0 94.841-62.348 114.118 38.776 0 0 61.925-56.073 82.802 16.774 0 0 72.552-38.733 72.29 53.503 0 0 72.46-30.804 59.759 57.554 0 0 75.389-51.28 79.939 33.897 0 0 42.652-35.292 56.211 14.682 0 0 45.79-87.355 124.949-35.29 0 0 137.907-102.213 154.577 34.375 0 0 78.58-18.124 51.45 67.532 0 0 80.25-31.152 66.21 52.2 0 0 49.68-19.96 44.04 32.32 0 0 61.99-9.36 58.22 71.98H0V396z" fill="#FFF6ED"/>
    <path d="M0 778.247s39.813-7.785 73.706 49.798c0 0 93.962-34.889 159.625 37.732 0 0 58.754-41.353 114.027-2.612 0 0 30.161-87.935 96.347-34.752 0 0 44.223-44.243 65.374 32.184 0 0 64.687-32.047 97.833 43.922 0 0 41.839-1.606 37.277 41.49 0 0 50.417-23.105 69.45 26.593 0 0 34.842-19.211 44.934 18.842 0 0 63.82-13.296 82.926 46.256 0 0 151.019-31.22 190.501 114.3H0V778.247zm1094 373.273h346V752c-98.66 68.358-98.66 178.511-98.66 178.511-59.65-30.679-48.67 44.796-48.67 44.796-91.35-17.517-92.63 70.273-92.63 70.273-51.28 4-34.28 56.81-34.28 56.81-68.28-25.89-71.76 49.13-71.76 49.13z" fill="#fff"/>
    <path d="M705.442 207.547c-18.405-9.567-23.67 17.073-23.67 17.073-44.016-8.553-78.855 14.69-90.772 27.38h849V29.328c-85.54-53.396-205.3-17.558-205.3-17.558-109.25-38.158-92.29 41.87-92.29 41.87-45.56-3.264-45.02 38.046-45.02 38.046s-39.17-50.614-86.45-23.75c-47.276 26.864-17.579 78.905-17.579 78.905-44.152-6.866-58.289 25.474-58.289 25.474-25.246-28.44-48.303-5.628-48.303-5.628-53.97-36.694-74.936 1.277-74.936 1.277-53.595-9.305-36.777 33.13-67.845 15.345-31.069-17.784-38.546 24.238-38.546 24.238z" fill="#FFF6ED"/>
    <path fill-rule="evenodd" clip-rule="evenodd" d="M1440 252H864s57.958-27.79 92.836-20.301c0 0 6.714-16.91 24.506-4.828 0 0 4.939-19.649 20.348-13.128 0 0 4.48-37.771 45.8-30.705 0 0 5.68-55.588 71.02-37.422 0 0 2.48-9.574 14.82-4.405 0 0 8.77-36.943 50.44-33.083 0 0 54.28-34.15 68.38 29.659 0 0 61.86-3.991 50.48 50.005 0 0 23.54 3.881 31.42 21.938 0 0 4.16-10.729 11.95-7.022 0 0 11.46-59.556 69.14-58.03 0 0 7.34-17.86 24.86-8.265" fill="#fff"/>
  </g>
  <defs>
    <linearGradient id="2VEInSknOb" x1="720" y1="252" x2="720" y2="1152" gradientUnits="userSpaceOnUse">
      <stop stop-color="#FFE9D4"/>
      <stop offset="1" stop-color="#FFF6ED"/>
    </linearGradient>
    <clipPath id="2VEInSknOa">
      <path fill="#fff" d="M0 0h1440v1152H0z"/>
    </clipPath>
  </defs>
</svg>
