<svg fill="none" xmlns="http://www.w3.org/2000/svg" viewBox="0 0 1440 1100">
  <g clip-path="url(#VPAztWBVFa)">
    <path fill="url(#VPAztWBVFb)" d="M0 0h1440v900H0z"/>
    <path stroke="#fff" stroke-opacity=".1" stroke-width="32" d="M2426.354 933.635l-989.95-989.95m893.94 989.95l-989.95-989.95m893.95 989.95l-989.95-989.95m893.94 989.95l-989.95-989.95m893.95 989.95l-989.95-989.95m893.95 989.95l-989.95-989.95m893.94 989.95l-989.95-989.95m893.95 989.95l-989.95-989.95m893.95 989.95l-989.95-989.95m893.94 989.95l-989.95-989.95m893.95 989.95l-989.95-989.95m893.95 989.95l-989.95-989.95m893.94 989.95l-989.95-989.95m893.95 989.95l-989.95-989.95m893.95 989.95L92.354-56.315m893.944 989.95L-3.652-56.315m893.946 989.95l-989.95-989.95m893.946 989.95l-989.95-989.95m893.948 989.95l-989.95-989.95m893.946 989.95l-989.95-989.95m893.946 989.95l-989.95-989.95m893.947 989.95l-989.95-989.95m893.947 989.95l-989.95-989.95m893.946 989.95l-989.95-989.95m893.947 989.95l-989.95-989.95m893.946 989.95l-989.95-989.95"/>
    <path d="M195.054 497.64s11.406-123.275-62.299-144.327c1.423-25.271-7.533-69.713-54.742-45.313C78.013 218.4 0 215.63 0 215.63V900h1440V24c-53.38 24.435-19.15 82.901-19.15 82.901-57.79 5.58-21.82 53.942-21.82 53.942-44.78 56.817 16.65 112.651 16.65 112.651S1354 251 1341.32 315.906c0 0-74.32-12.906-91.19 51.913C1233.26 432.638 1229 330 1076 330s-183.679 77.177-183.679 77.177c-139.201-30.438-131.782 83.071-131.782 83.071-45.923-8.498-31.934 49.334-31.934 49.334-113.893 32.128-90.548 121.073-90.548 121.073-25.246-30.311-54.897-3.254-54.897-3.254C563 566 497 617.5 466 642.5c-11.6-78.8-41-91.777-78.5-69-26.705-50.433-84.804-20.777-84.804-20.777-35.941-96.555-107.642-55.083-107.642-55.083z" fill="#F8F5FF"/>
    <path d="M43.22 869.532C8.44 856.279-1 887.167-1 887.167V900h1442.58V509.067c-168.37-41.344-252.02 112.215-252.02 112.215-34.68-4.05-26.12 38.068-26.12 38.068-43.58-32.288-82.06 10.382-82.06 10.382-5.98-50.327-47.2-38.804-47.2-38.804-22.18-64.943-71.133-15.831-71.133-15.831-76.949-24.851-97.618 7.216-97.618 7.216-39.444-13.696-37.861 31.367-37.861 31.367-33.116-.92-27.281 28.054-27.281 28.054C690.377 623.676 655 708.5 655 708.5c-53.117-12-77 1-89.5 38.767l-.841-.17c-20.646-4.163-45.78-9.231-54.659 30.813-9 40.59-42.279 41.41-59.482 0C433.314 736.5 368.5 766.5 368.5 766.5c-53.415-21.267-65.85 45.71-65.85 45.71-70.285-14.322-112.524 42.743-112.524 42.743-94.256-32.361-112.13 27.833-146.906 14.579z" fill="#fff"/>
    <path d="M1440 787s-58.61 9.669-71.48 97.431c0 0-89.12-33.786-152.8 36.538-63.68 70.325-14.68-94.045-106.28-56.529 0 0-29.25-93.154-93.43-41.653 0 0-42.891-42.843-63.403 31.166 0 0-90.343-25.033-122.487 48.532 0 0-40.575-1.554-36.15 40.178 0 0-47.551-5.805-68.099 42.321 0 0-33.789-18.603-43.575 18.246 0 0-65.891-12.875-84.42 44.8 0 0-95.227-28.19-185.876 51.97h1028V787z" fill="#F8F5FF"/>
  </g>
  <defs>
    <linearGradient id="VPAztWBVFb" x1="720" y1="0" x2="720" y2="900" gradientUnits="userSpaceOnUse">
      <stop stop-color="#EFE8FF"/>
      <stop offset="1" stop-color="#F8F5FF"/>
    </linearGradient>
    <clipPath id="VPAztWBVFa">
      <path fill="#fff" d="M0 0h1440v1100H0z"/>
    </clipPath>
  </defs>
</svg>
